<svg xmlns="http://www.w3.org/2000/svg" xmlns:xlink="http://www.w3.org/1999/xlink" viewBox="0 0 544.93 268.65"><defs><style>.cls-1,.cls-6{fill:#ddd;}.cls-2{fill:#024b37;}.cls-3{fill:url(#linear-gradient);}.cls-4{fill:url(#linear-gradient-2);}.cls-5{fill:url(#linear-gradient-3);}.cls-6{font-size:224px;font-family:Space_Galaxy;}</style><linearGradient id="linear-gradient" x1="83.21" y1="192.91" x2="78.4" y2="204.97" gradientUnits="userSpaceOnUse"><stop offset="0" stop-color="#ddd" stop-opacity="0"/><stop offset="1" stop-opacity="0.3"/></linearGradient><linearGradient id="linear-gradient-2" x1="81.8" y1="26.2" x2="78.18" y2="18.07" gradientUnits="userSpaceOnUse"><stop offset="0" stop-color="#ddd" stop-opacity="0"/><stop offset="0.99" stop-color="#cac5d0"/></linearGradient><linearGradient id="linear-gradient-3" x1="54.86" y1="161.37" x2="42.11" y2="177.62" xlink:href="#linear-gradient"/></defs><g id="Layer_2" data-name="Layer 2"><g id="Layer_1-2" data-name="Layer 1"><path class="cls-1" d="M105.82,34.86c-4.41,4.52-12,14.56-12,14.57a108.32,108.32,0,0,0-12-14.57,110.3,110.3,0,0,0-16-13.45,109.77,109.77,0,0,0-16,13.45,108.32,108.32,0,0,0-12,14.57,106,106,0,0,0-12-14.57,129.71,129.71,0,0,1,12-13.79A126.6,126.6,0,0,1,61.61,2.45C63,1.6,64.42.78,65.85,0c1.7.92,3.37,1.92,5,2.94A123.05,123.05,0,0,1,83.3,11.66a127.42,127.42,0,0,1,10.55,9.41A129.71,129.71,0,0,1,105.82,34.86Z"/><path class="cls-1" d="M130.17,110.46a126,126,0,0,1-9.09,47.15,126.88,126.88,0,0,1-16,28.45,126.6,126.6,0,0,1-12,13.77,127.69,127.69,0,0,1-10.57,9.41A122.13,122.13,0,0,1,70.05,218s0,0,0,0c-1.62,1-3.22,2-4.92,2.89-1.43-.78-2.83-1.6-4.22-2.43a130.58,130.58,0,0,1-13.21-9.23,127.56,127.56,0,0,1-10.56-9.41,126.31,126.31,0,0,1-28-136.51,125.78,125.78,0,0,1,9.09,47.14,107.5,107.5,0,0,0,18.89,61,107.44,107.44,0,0,0,18.9-61,125.41,125.41,0,0,1,9.12-47.14,126,126,0,0,1,9.09,47.14,126,126,0,0,1-9.09,47.15,127,127,0,0,1-16,28.45,111,111,0,0,0,16,13.46,110.47,110.47,0,0,0,16-13.46A107.78,107.78,0,0,0,112,110.46a125.41,125.41,0,0,1,9.12-47.14A126,126,0,0,1,130.17,110.46Z"/><path class="cls-2" d="M81.23,46.62a15.59,15.59,0,0,0-1.5-2.72,18.12,18.12,0,0,0-2.11-2.5,14,14,0,0,0-2.11-1.74.59.59,0,0,0-.17-.12,14.06,14.06,0,0,0-2.47-1.41c-.29-.14-.59-.26-.88-.39a18,18,0,0,0-3.39-.92,17.56,17.56,0,0,0-2.74-.24h0a17.56,17.56,0,0,0-2.74.24c-.08,0-.15,0-.22,0a18,18,0,0,0-3.18.89c.13-.29.25-.58.37-.87.26-.58.58-1.16.89-1.7.17-.26.37-.53.54-.8a.56.56,0,0,1,.12-.16c.48-.1,1-.2,1.48-.27s.92-.12,1.38-.15.9,0,1.36,0a20.85,20.85,0,0,1,2.76.2c.48.07,1,.17,1.48.27s1.23.31,1.82.5,1.21.42,1.77.66c.17.07.29.14.46.22a0,0,0,0,0,0,0,17.55,17.55,0,0,1,3.47,2.06,19,19,0,0,1,2.15,1.87c.51.51,1,1.06,1.46,1.62a21.68,21.68,0,0,1,1.43,2.06,7.51,7.51,0,0,1,.39.68c-.15.24-.29.51-.46.78C82.17,45.33,81.71,46,81.23,46.62Z"/><path class="cls-2" d="M52,43.89a16.73,16.73,0,0,1-1.51-2.72,17.56,17.56,0,0,1,1.47-1.64,19.11,19.11,0,0,1,2.14-1.87,20,20,0,0,1,3.48-2.07l-.21.46a18.94,18.94,0,0,0-1.17,3.6,16,16,0,0,0-2.1,1.75A16.68,16.68,0,0,0,52,43.89Z"/><path class="cls-2" d="M74.15,52.19q.22-.46.42-1a18.88,18.88,0,0,0,1-3.1,16,16,0,0,0,2.1-1.75,17.13,17.13,0,0,0,2.09-2.49,16.36,16.36,0,0,1,1.52,2.71,19.12,19.12,0,0,1-1.46,1.65,20.05,20.05,0,0,1-2.15,1.86A20.57,20.57,0,0,1,74.15,52.19Z"/><path class="cls-2" d="M65.84,54a18.89,18.89,0,0,1-4.22-.48h0a12.72,12.72,0,0,1-1.52-.41.27.27,0,0,1-.15,0l-.65-.22c-.27-.09-.51-.19-.78-.29s-.63-.26-.94-.41a18.66,18.66,0,0,1-3.47-2.08,17.45,17.45,0,0,1-2.16-1.87,16.3,16.3,0,0,1-1.45-1.65,17,17,0,0,1-1.38-1.94c-.15-.24-.29-.51-.44-.75a5.7,5.7,0,0,1,.39-.68,19.08,19.08,0,0,1,1.43-2.06A16.54,16.54,0,0,0,52,43.9a18.36,18.36,0,0,0,2.11,2.47,16,16,0,0,0,2.08,1.75c.08.05.1.1.17.12.25.19.54.36.8.53.54.32,1.12.61,1.68.88.29.14.58.26.87.38h0A16.87,16.87,0,0,0,72,50,16.73,16.73,0,0,1,70.2,53.4c0,.05-.07.1-.12.15a18.46,18.46,0,0,1-2.86.43C66.76,54,66.3,54,65.84,54Z"/><path class="cls-1" d="M59.68,50c-.29-.12-.58-.24-.87-.38-.58-.27-1.14-.56-1.68-.88-.26-.17-.55-.34-.8-.53-.07,0-.09-.07-.17-.12a14.29,14.29,0,0,1-.26-1.48c-.07-.46-.12-.92-.17-1.38s0-.92,0-1.36a16.69,16.69,0,0,1,.2-2.76c.07-.51.17-1,.26-1.48a11.27,11.27,0,0,1,.39-1.46,10.75,10.75,0,0,1,.39-1.13l.39-1a2.92,2.92,0,0,0,.19-.44v0h0a18,18,0,0,1,2.06-3.47A19.23,19.23,0,0,1,61.47,30c.54-.51,1.07-1,1.63-1.45a16.72,16.72,0,0,1,2.08-1.43,5.45,5.45,0,0,1,.66-.39c.26.15.51.29.77.46a16.94,16.94,0,0,1,1.94,1.36A16.26,16.26,0,0,0,65.84,30a18.61,18.61,0,0,0-2.5,2.11,13.41,13.41,0,0,0-1,1.12c-.15.17-.29.36-.44.55a3.9,3.9,0,0,1-.32.42.56.56,0,0,1-.12.16c-.19.27-.36.54-.51.8a15.25,15.25,0,0,0-.89,1.7c-.12.29-.24.58-.37.87a16.58,16.58,0,0,0-1.16,6.14v0a16.69,16.69,0,0,0,.22,2.74.74.74,0,0,0,.05.19A16.56,16.56,0,0,0,59.68,50Z"/><path class="cls-1" d="M61.61,34.2h0l.31-.41A3.91,3.91,0,0,0,61.61,34.2Z"/><path class="cls-1" d="M63.12,59.28c-.57-.47-1.12-1-1.64-1.47a20.15,20.15,0,0,1-1.87-2.15,19.2,19.2,0,0,1-2.07-3.46l1,.41a19.18,19.18,0,0,0,3.1,1h0a15.9,15.9,0,0,0,1.74,2.1,16.59,16.59,0,0,0,2.5,2.09A16.82,16.82,0,0,1,63.12,59.28Z"/><path class="cls-1" d="M74.15,35.6l-.47-.22a19.28,19.28,0,0,0-3.61-1.17,16.58,16.58,0,0,0-1.74-2.1A18.38,18.38,0,0,0,65.84,30a17.94,17.94,0,0,1,2.71-1.52A20.87,20.87,0,0,1,70.2,30a22.28,22.28,0,0,1,1.86,2.14A20.15,20.15,0,0,1,74.15,35.6Z"/><path class="cls-1" d="M65.84,61.09l-.66-.39a15.16,15.16,0,0,1-2.06-1.43,16.35,16.35,0,0,0,2.72-1.5,19.29,19.29,0,0,0,2.49-2.11,16.75,16.75,0,0,0,1.75-2.11s.07-.1.12-.15A16.73,16.73,0,0,0,72,50a17,17,0,0,0,1.14-6.13,17.2,17.2,0,0,0-.26-3A18,18,0,0,0,72,37.74c.29.13.59.25.88.39a14.06,14.06,0,0,1,2.47,1.41.59.59,0,0,1,.17.12,17.91,17.91,0,0,1,.41,2.86c0,.46,0,.9,0,1.38a20.13,20.13,0,0,1-.46,4.22,21.79,21.79,0,0,1-1,3.13,3.71,3.71,0,0,0-.19.46c-.07.17-.15.31-.22.48A18.26,18.26,0,0,1,72,55.66a18.67,18.67,0,0,1-1.84,2.15c-.53.51-1.07,1-1.65,1.46a20.6,20.6,0,0,1-1.94,1.36C66.35,60.8,66.1,60.94,65.84,61.09Z"/><path class="cls-1" d="M61.61,34.2h0l.31-.41A3.91,3.91,0,0,0,61.61,34.2Z"/><path class="cls-1" d="M61.5,34.37c-.17.27-.37.54-.54.8.15-.26.32-.53.51-.8a.56.56,0,0,0,.12-.16h0A.56.56,0,0,0,61.5,34.37Z"/><path class="cls-3" d="M65.08,199.6a95.67,95.67,0,0,0,17.43,9.72c0-.07,9-7.25,15.4-14.48l-16.1-9.42C81.74,185.38,71.14,195.61,65.08,199.6Z"/><path class="cls-4" d="M83.3,11.62s-10.57,4.6-17.45,9.75a127.08,127.08,0,0,1,12.23,9.78l14.77-11.1A99.88,99.88,0,0,0,83.3,11.62Z"/><path class="cls-5" d="M49,186s-8.67-8.41-12-14.56a104,104,0,0,0,9.15-16.14L62.24,164s-6,11.47-7.92,14.36C54.32,178.32,50.93,183.58,49,186Z"/><text class="cls-6" transform="translate(148.45 221.16)">isdom</text></g></g></svg>